<svg version="1" xmlns="http://www.w3.org/2000/svg" width="170.667" height="170.667" viewBox="0 0 128.000000 128.000000"><path d="M16 30.4c0 .8 1.1 4.6 2.5 8.3 1.4 3.7 4.8 12.9 7.5 20.3 14.9 41.1 14.4 40 17.3 40 2 0 3.1-2.3 11.2-25.4 4.9-14 9.1-25.4 9.2-25.2.1.1 4.2 11.4 9.1 25.2 8.2 23.2 9 24.9 11.3 25.2 2.5.3 2.8-.4 8.4-15.5 3.2-8.7 6.8-18.5 8.1-21.8C106.9 45 112 30.8 112 29.9c0-.6-1-.9-2.2-.7-2.5.3-3.5 2.8-15.3 35.3-3.6 9.9-7.3 20-8.1 22.3-.9 2.4-2 4-2.4 3.5-.4-.4-4.7-12.2-9.5-26.1-4.9-13.9-9.2-25.5-9.8-25.9-1.9-1.1-3.6 2.8-12.2 27.5-4.9 13.9-9.2 24.9-9.6 24.5-.8-.8-2.5-5.4-14.9-39.8-7-19.3-7.8-21-9.9-21.3-1.4-.2-2.1.2-2.1 1.2z"/><path d="M30 49.9c0 3.8 1.1 4.1 12.6 4.1 10.2 0 11.4-.2 12.4-1.9.5-1.1 1-2.2 1-2.5 0-.3-5.8-.6-13-.6s-13 .4-13 .9zM72 50.2c.1 3.5 1.6 3.9 13.1 3.6 11-.3 11.4-.4 11.7-2.6.3-2.2.2-2.2-12.2-2.2-9.4 0-12.6.3-12.6 1.2zM38.7 71.6C37.3 73 40.2 76 42.9 76c3.1 0 5.7-2.2 4.6-4-.7-1.1-7.8-1.4-8.8-.4zM80.7 71.6c-1.3 1.3 1.4 4.4 3.8 4.4 3 0 5.3-3.5 2.9-4.4-2-.8-5.9-.8-6.7 0z"/></svg>